<?xml version="1.0" encoding="utf-8"?>
<!DOCTYPE svg PUBLIC "-//W3C//DTD SVG 20010904//EN"
 "http://www.w3.org/TR/2001/REC-SVG-20010904/DTD/svg10.dtd">
<svg version="1.0" xmlns="http://www.w3.org/2000/svg"
 width="200.000000pt" height="91.000000pt" viewBox="0 0 200.000000 191.000000"
 preserveAspectRatio="xMidYMid meet">

<g transform="translate(0.000000,191.000000) scale(0.100000,-0.100000)"
fill="#000000" stroke="none">
<path d="M2191 1453 l-100 -188 -258 0 -258 0 -3 -67 -3 -68 310 0 310 0 105
203 c58 111 107 209 111 218 4 11 -10 26 -49 52 -31 20 -58 37 -60 37 -3 0
-50 -84 -105 -187z"/>
<path d="M675 1600 c-3 -5 -5 -29 -4 -53 3 -55 -2 -62 -61 -92 -43 -22 -70
-49 -70 -70 0 -3 13 1 30 10 16 8 35 15 42 15 30 0 91 23 109 41 25 25 24 58
-3 114 -22 45 -32 53 -43 35z"/>
<path d="M578 1588 c22 -22 13 -51 -28 -88 -32 -30 -40 -44 -39 -71 0 -19 3
-27 6 -19 9 24 35 51 76 76 26 18 37 31 37 49 0 26 -31 65 -52 65 -9 0 -9 -3
0 -12z"/>
<path d="M792 1568 c-7 -7 -12 -37 -12 -68 0 -75 -19 -92 -133 -119 -96 -23
-120 -33 -154 -64 -32 -29 -31 -79 2 -101 48 -32 175 -43 175 -15 0 4 -14 21
-31 37 -26 25 -30 32 -20 50 6 11 25 25 42 31 42 15 42 15 24 -13 -15 -23 -15
-25 14 -45 18 -13 31 -32 33 -49 3 -28 25 -39 55 -28 14 6 14 8 -1 24 -21 24
-20 65 2 85 27 25 31 21 25 -18 -4 -26 -1 -41 12 -55 24 -26 32 -25 39 4 5 19
18 28 58 41 59 19 88 46 88 81 l0 24 -20 -20 c-12 -12 -33 -20 -52 -20 l-32 0
32 33 c47 49 43 76 -20 129 -29 23 -49 36 -46 28 23 -64 22 -67 -16 -30 -20
19 -40 47 -44 63 -6 22 -10 25 -20 15z"/>
<path d="M363 1503 c-20 -8 -14 -45 12 -78 33 -40 43 -25 11 18 -35 45 -21 56
21 15 39 -38 44 -23 7 21 -26 32 -30 33 -51 24z"/>
<path d="M1060 1480 c-23 -33 -21 -56 6 -67 22 -8 66 43 62 72 -5 33 -43 31
-68 -5z m50 2 c0 -13 -30 -52 -41 -52 -14 0 -11 22 8 42 17 19 33 24 33 10z"/>
<path d="M2482 1477 c-11 -17 -67 -125 -126 -239 l-107 -208 -265 0 -264 0 0
-85 0 -85 269 0 269 0 108 -202 c59 -112 111 -208 117 -215 7 -9 24 -2 70 27
34 22 61 44 60 49 -2 5 -52 110 -113 231 l-110 222 119 233 c88 172 117 236
108 243 -7 5 -35 21 -64 36 l-52 26 -19 -33z"/>
<path d="M1128 1430 c-32 -33 -34 -43 -13 -60 13 -11 21 -8 50 20 34 33 41 56
10 30 -19 -15 -34 -5 -17 12 13 13 16 28 5 28 -5 -1 -20 -14 -35 -30z m12 -40
c0 -5 -4 -10 -10 -10 -5 0 -10 5 -10 10 0 6 5 10 10 10 6 0 10 -4 10 -10z"/>
<path d="M320 1425 l24 -25 -33 11 c-46 16 -50 4 -11 -36 34 -36 67 -50 37
-17 -23 25 -21 35 2 22 48 -25 56 2 13 43 -36 35 -64 37 -32 2z"/>
<path d="M2716 1388 c-8 -13 -60 -116 -117 -229 l-102 -206 113 -212 113 -211
98 0 c60 0 99 4 99 10 0 6 -29 68 -64 138 -91 184 -91 172 -12 172 l66 0 0 95
0 95 -85 0 c-57 0 -85 4 -85 11 0 7 38 85 85 174 47 90 85 168 85 174 0 7 -31
11 -90 11 -82 0 -91 -2 -104 -22z"/>
<path d="M1172 1365 c-20 -19 -31 -35 -24 -35 7 0 29 16 50 35 20 19 31 35 24
35 -7 0 -29 -16 -50 -35z"/>
<path d="M275 1345 c41 -35 55 -42 55 -26 0 9 -75 61 -87 61 -5 -1 10 -16 32
-35z"/>
<path d="M1245 1351 c7 -22 5 -23 -19 -17 -22 5 -26 3 -24 -10 2 -9 -3 -19 -9
-21 -7 -3 -13 0 -13 6 0 6 -5 11 -10 11 -7 0 -7 -6 0 -20 14 -25 22 -25 65 3
39 25 43 38 19 58 -15 12 -16 11 -9 -10z"/>
<path d="M210 1316 c0 -7 16 -26 35 -40 37 -29 46 -25 18 7 -18 19 -17 19 15
12 42 -9 41 2 -3 21 -43 18 -65 18 -65 0z"/>
<path d="M1238 1283 c-21 -9 -38 -20 -38 -24 0 -12 7 -11 31 1 23 13 26 -2 4
-20 -13 -11 -21 -40 -11 -40 16 0 99 43 89 47 -7 2 -21 -1 -32 -7 -27 -14 -27
1 -1 25 11 10 17 22 14 26 -7 11 -10 11 -56 -8z"/>
<path d="M167 1250 c-3 -11 -1 -20 4 -20 5 0 9 5 9 10 0 6 7 10 15 10 9 0 15
-9 15 -22 0 -17 3 -19 12 -10 18 18 28 14 28 -10 0 -19 2 -20 10 -8 16 25 11
36 -25 53 -46 22 -62 21 -68 -3z"/>
<path d="M1283 1194 c-52 -31 -57 -54 -10 -53 39 1 93 16 63 18 -15 1 -17 6
-12 31 3 17 4 30 3 30 -1 0 -21 -12 -44 -26z m17 -24 c0 -5 -8 -10 -17 -10
-15 0 -16 2 -3 10 19 12 20 12 20 0z"/>
<path d="M163 1186 c23 -18 22 -30 -3 -23 -11 3 -20 2 -20 -3 0 -10 30 -21 40
-15 5 3 11 1 15 -5 10 -16 42 -12 49 6 10 27 7 30 -33 42 -52 16 -71 15 -48
-2z m67 -26 c0 -5 -7 -10 -15 -10 -8 0 -15 5 -15 10 0 6 7 10 15 10 8 0 15 -4
15 -10z"/>
<path d="M715 1160 c-4 -6 27 -10 84 -10 54 0 91 4 91 10 0 6 -35 10 -84 10
-47 0 -88 -4 -91 -10z"/>
<path d="M725 1130 c-4 -6 30 -10 95 -10 65 0 99 4 95 10 -3 6 -46 10 -95 10
-49 0 -92 -4 -95 -10z"/>
<path d="M126 1103 c-4 -9 0 -23 8 -31 13 -13 18 -13 40 1 32 21 40 21 32 1
-4 -10 -1 -14 6 -12 7 3 14 14 16 26 3 17 -2 22 -19 22 -12 0 -31 -7 -41 -17
-22 -19 -36 -10 -18 12 10 12 10 15 -3 15 -8 0 -18 -8 -21 -17z"/>
<path d="M519 1103 c-13 -17 -13 -17 6 -3 11 8 22 16 24 17 2 2 0 3 -6 3 -6 0
-17 -8 -24 -17z"/>
<path d="M1262 1114 c-25 -11 -1 -22 38 -17 36 5 40 4 34 -12 -5 -13 -3 -16 7
-13 8 3 14 13 14 24 0 15 -8 19 -40 21 -22 1 -46 0 -53 -3z"/>
<path d="M732 1098 c5 -15 238 -24 238 -9 0 15 -40 21 -143 21 -75 0 -98 -3
-95 -12z"/>
<path d="M527 1048 c11 -13 28 -36 36 -53 8 -16 31 -39 51 -49 20 -11 36 -23
36 -28 0 -4 44 -7 98 -7 69 1 87 4 62 9 l-35 7 36 2 c39 1 96 34 113 66 5 11
18 32 28 48 l19 27 -153 -2 c-107 -1 -134 -3 -90 -7 63 -6 92 -24 92 -58 0
-16 -41 -37 -104 -52 -45 -11 -54 -10 -93 10 -33 17 -46 32 -59 65 -12 32 -22
44 -37 44 l-20 0 20 -22z"/>
<path d="M120 1030 c0 -5 23 -10 50 -10 28 0 50 5 50 10 0 6 -22 10 -50 10
-27 0 -50 -4 -50 -10z"/>
<path d="M122 973 c3 -26 6 -28 48 -28 42 0 45 2 48 28 3 26 2 27 -48 27 -50
0 -51 -1 -48 -27z m83 -4 c-8 -12 -65 -12 -65 0 0 10 49 20 63 13 4 -2 5 -8 2
-13z"/>
<path d="M1260 968 c0 -27 2 -28 49 -28 40 0 50 3 54 20 3 11 2 22 -3 25 -4 3
-11 -5 -14 -18 l-6 -22 -20 25 c-16 20 -20 22 -20 8 0 -10 -3 -18 -6 -18 -4 0
-13 8 -20 18 -12 15 -13 14 -14 -10z"/>
<path d="M1249 899 c-14 -27 -4 -36 54 -44 46 -7 47 -7 47 19 0 45 -79 65
-101 25z m76 -10 c4 -6 5 -13 2 -16 -8 -8 -67 7 -67 18 0 13 57 11 65 -2z"/>
<path d="M143 892 c13 -14 14 -21 5 -30 -6 -6 -10 -14 -7 -16 7 -7 92 38 93
49 1 6 -24 11 -54 13 -52 3 -54 3 -37 -16z"/>
<path d="M434 864 c3 -9 6 -33 6 -54 0 -48 22 -72 64 -68 35 3 51 28 59 96 5
41 4 42 -24 42 -16 0 -29 -4 -29 -10 0 -5 5 -10 11 -10 6 0 9 -19 7 -47 -3
-40 -6 -48 -23 -48 -16 0 -21 8 -23 39 -2 21 1 43 7 49 19 19 12 27 -25 27
-29 0 -35 -3 -30 -16z"/>
<path d="M600 871 c0 -6 5 -13 10 -16 14 -9 13 -78 -2 -93 -9 -9 -7 -12 9 -12
11 0 41 -3 67 -6 l46 -7 0 32 c0 35 -15 42 -23 11 -5 -21 -41 -28 -52 -10 -11
17 5 32 21 19 12 -9 14 -6 14 21 0 26 -3 30 -14 21 -11 -9 -15 -8 -20 5 -9 23
-8 24 19 24 14 0 28 -7 31 -15 9 -24 24 -17 24 10 0 24 -2 25 -65 25 -36 0
-65 -4 -65 -9z"/>
<path d="M774 863 c15 -51 17 -73 7 -91 -8 -16 -7 -21 5 -26 38 -14 73 1 44
19 -5 3 -10 13 -10 21 0 25 34 11 40 -16 7 -28 38 -39 51 -18 10 16 12 34 2
24 -13 -13 -32 37 -20 55 19 30 -8 49 -70 49 -47 0 -54 -2 -49 -17z m82 -14
c10 -17 -13 -36 -27 -22 -12 12 -4 33 11 33 5 0 12 -5 16 -11z"/>
<path d="M995 823 c0 -34 -5 -58 -12 -60 -7 -3 -9 3 -6 16 4 15 1 21 -11 21
-10 0 -16 -9 -16 -25 0 -18 7 -26 27 -31 41 -11 58 7 61 62 2 27 8 54 14 61 8
10 3 13 -24 13 l-34 0 1 -57z"/>
<path d="M190 833 c-45 -19 -44 -18 -30 -42 22 -43 110 -9 96 37 -8 25 -18 26
-66 5z m39 -34 c-18 -11 -59 -12 -59 0 0 12 64 29 69 18 2 -5 -3 -13 -10 -18z"/>
<path d="M1207 783 c-17 -17 -5 -44 27 -60 40 -18 66 -12 66 16 0 30 -73 64
-93 44z m64 -33 c21 -17 22 -19 6 -20 -23 0 -57 18 -57 30 0 16 26 11 51 -10z"/>
<path d="M230 759 c-45 -27 -43 -24 -35 -48 8 -28 25 -27 18 0 -5 19 -3 21 20
15 22 -5 25 -3 20 10 -5 14 -2 16 15 12 24 -7 25 -6 16 16 -8 21 -12 20 -54
-5z"/>
<path d="M1788 773 l-238 -3 1 -43 c1 -23 4 -52 8 -65 l6 -24 254 -1 253 -2
101 -187 101 -187 35 20 c20 11 47 29 61 39 l25 19 -85 163 c-46 90 -98 188
-115 218 l-31 55 -69 0 c-39 1 -177 -1 -307 -2z"/>
<path d="M1180 721 c0 -12 72 -63 78 -56 7 7 -14 28 -47 48 -17 10 -31 14 -31
8z"/>
<path d="M685 650 c5 -36 8 -73 7 -82 0 -10 6 -18 14 -18 8 0 14 -5 14 -11 0
-5 3 -8 8 -6 10 7 2 177 -9 177 -5 0 -10 -28 -10 -62 l-2 -63 -6 57 c-3 31
-10 60 -15 65 -4 4 -5 -21 -1 -57z"/>
<path d="M750 620 c0 -53 4 -90 10 -90 6 0 10 37 10 90 0 53 -4 90 -10 90 -6
0 -10 -37 -10 -90z"/>
<path d="M788 675 c-4 -22 -7 -62 -7 -90 l1 -50 9 45 c5 25 8 65 7 90 l-3 45
-7 -40z"/>
<path d="M1144 679 c-9 -10 -15 -20 -13 -22 2 -2 19 -15 37 -30 38 -31 64 -36
38 -8 -10 11 -13 21 -7 25 5 4 12 2 16 -4 8 -13 25 -13 25 0 0 6 -11 15 -25
20 -14 5 -25 14 -25 19 0 19 -29 19 -46 0z m36 -20 c0 -5 -4 -9 -10 -9 -5 0
-10 7 -10 16 0 8 5 12 10 9 6 -3 10 -10 10 -16z"/>
<path d="M301 646 c-29 -30 -32 -37 -21 -51 19 -22 49 -15 74 18 20 27 20 27
0 47 -20 20 -20 20 -53 -14z m49 -3 c0 -12 -33 -43 -47 -43 -19 0 -16 9 10 31
23 19 37 24 37 12z"/>
<path d="M360 584 c-25 -28 -29 -39 -19 -50 18 -22 46 -16 68 15 26 36 26 47
2 61 -16 8 -25 4 -51 -26z m50 3 c0 -17 -44 -59 -53 -51 -8 8 31 64 44 64 5 0
9 -6 9 -13z"/>
<path d="M1047 593 c-24 -23 26 -102 57 -90 27 11 29 34 6 67 -20 28 -48 39
-63 23z m49 -38 c9 -14 14 -28 11 -32 -8 -7 -35 14 -48 39 -16 29 17 23 37 -7z"/>
<path d="M982 550 l-22 -9 22 -46 c23 -46 35 -54 56 -33 18 18 14 44 -10 72
-19 20 -28 23 -46 16z m38 -29 c12 -24 13 -51 2 -51 -9 0 -32 44 -32 60 0 17
19 11 30 -9z"/>
<path d="M480 509 c-23 -44 -21 -69 7 -69 12 0 14 3 6 11 -16 16 -5 39 15 32
14 -5 15 -3 5 8 -19 19 -16 27 10 31 l22 3 -22 13 c-21 11 -24 9 -43 -29z"/>
<path d="M553 504 c-3 -8 0 -27 6 -41 6 -14 9 -28 5 -32 -4 -3 -9 0 -11 7 -6
17 -23 15 -23 -2 0 -16 34 -31 50 -21 13 8 13 42 0 50 -5 3 -10 13 -10 22 0
12 3 13 14 4 9 -8 16 -8 20 -2 4 6 -2 15 -13 20 -26 14 -31 14 -38 -5z"/>
<path d="M853 503 c-16 -6 -17 -42 -3 -78 7 -20 16 -26 33 -23 19 3 22 9 21
46 -1 51 -18 69 -51 55z m31 -29 c9 -23 7 -54 -3 -54 -11 0 -21 25 -21 51 0
23 15 25 24 3z"/>
<path d="M625 450 c0 -58 11 -66 21 -14 4 19 13 38 20 41 20 7 7 23 -19 23
-20 0 -22 -5 -22 -50z"/>
<path d="M690 465 c-19 -49 -22 -75 -11 -75 6 0 11 5 11 10 0 14 28 12 33 -2
10 -29 18 4 10 43 -10 50 -29 61 -43 24z m17 -27 c-3 -8 -6 -5 -6 6 -1 11 2
17 5 13 3 -3 4 -12 1 -19z"/>
<path d="M760 440 c0 -50 1 -51 28 -48 25 3 27 6 27 48 0 42 -2 45 -27 48 -27
3 -28 2 -28 -48z m44 5 c7 -27 1 -45 -15 -45 -5 0 -9 16 -9 35 0 41 15 47 24
10z"/>
<path d="M723 304 c3 -20 8 -39 11 -41 12 -12 26 11 26 43 0 28 -4 34 -21 34
-19 0 -21 -4 -16 -36z"/>
</g>
</svg>
