<?xml version="1.0" encoding="utf-8"?>
<!-- Generator: Adobe Illustrator 16.0.0, SVG Export Plug-In . SVG Version: 6.00 Build 0)  -->
<!DOCTYPE svg PUBLIC "-//W3C//DTD SVG 1.1//EN" "http://www.w3.org/Graphics/SVG/1.1/DTD/svg11.dtd">
<svg version="1.1" xmlns="http://www.w3.org/2000/svg"
 width="200.000000pt" height="191.000000pt" viewBox="0 0 300.000000 191.000000"
 preserveAspectRatio="xMidYMid meet">
<g>
	<path fill="#FF7700" stroke="#FF7700" stroke-width="1.5118" stroke-miterlimit="10" d="M114,90.172
		C114,103.306,103.387,114,90.261,114H24.795C11.631,114,1,103.306,1,90.172V24.794C1,11.631,11.631,1,24.795,1H114
		C114,13.479,114,90.172,114,90.172z"/>
	<path fill="#FFFFFF" stroke="#FFFFFF" stroke-width="1.5271" stroke-miterlimit="10" d="M102.961,85.445
		c-0.356,2.642-1.767,3.838-4.189,3.838c-2.549,0-3.985-1.196-4.301-3.842V38.19c-7.196,5.003-19.409,12.9-36.584,23.842
		c-0.499,0.306-23.682-14.645-37.587-23.785v47.306c-0.388,2.533-1.799,3.729-4.22,3.729c-1.932,0-3.261-1.095-4.039-3.115V28.957
		c0.649-1.961,1.89-2.92,3.639-2.92c1.229,0,2.632,0.513,3.976,1.561c4.729,3.464,36.564,24.044,37.674,24.821
		c8.457-5.504,21.125-13.792,37.945-24.821c0.637-0.493,1.43-1.047,2.498-1.671c0.356-0.149,0.751-0.208,1.143-0.208
		c0.977,0,1.953,0.483,2.806,1.266c0.815,0.786,1.241,1.65,1.241,2.61V85.445z"/>
</g>
</svg>
