<svg xmlns="http://www.w3.org/2000/svg" width="115px" height="115px" viewBox="0 0 300 300" version="1.1"><path d="M 224.741 26.085 C 223.774 26.648, 221.186 29.540, 218.991 32.512 C 213.574 39.845, 213.632 44.724, 219.171 47.589 C 222.963 49.549, 225.037 48.808, 229.459 43.913 C 236.812 35.774, 237.746 29.471, 232.035 26.518 C 228.628 24.756, 227.171 24.670, 224.741 26.085 M 65.750 28.115 C 61.448 31.324, 62.015 35.260, 67.905 43.083 C 74.483 51.820, 75.293 52.439, 77.278 50.245 C 78.742 48.628, 78.444 47.956, 73.310 41.283 C 69.883 36.829, 67.985 33.483, 68.348 32.535 C 69.367 29.880, 70.754 30.802, 76.570 38 C 82.282 45.070, 83.879 46.056, 85.824 43.711 C 86.626 42.745, 85.653 40.807, 81.933 35.961 C 73.803 25.371, 71.152 24.085, 65.750 28.115 M 225.026 33.623 C 220.923 38.296, 219.333 41.733, 220.659 43.059 C 222.497 44.897, 231.949 33.345, 230.511 31.018 C 229.458 29.314, 228.346 29.842, 225.026 33.623 M 238.137 38.497 C 236.412 40.462, 235 42.729, 235 43.535 C 235 44.341, 234.304 45, 233.452 45 C 231.383 45, 227 49.831, 227 52.111 C 227 54.209, 232.636 61, 234.377 61 C 235.020 61, 239.087 57.439, 243.414 53.087 C 248.823 47.646, 251.090 44.678, 250.672 43.587 C 249.770 41.237, 247.055 41.660, 244.821 44.500 C 242.767 47.112, 240 47.861, 240 45.805 C 240 45.147, 241.225 43.331, 242.722 41.768 C 244.851 39.546, 245.217 38.567, 244.400 37.273 C 242.663 34.518, 241.416 34.762, 238.137 38.497 M 54.053 38.900 C 53.208 40.481, 53.721 41.419, 57.107 44.478 C 59.346 46.501, 60.991 48.342, 60.762 48.571 C 60.534 48.800, 57.950 47.831, 55.022 46.418 L 49.697 43.849 47.328 46.217 L 44.960 48.586 53.494 56.935 C 61.935 65.195, 62.049 65.265, 64.086 63.422 C 66.142 61.561, 66.139 61.555, 60.822 56.775 L 55.500 51.990 62.357 55.053 C 68.868 57.962, 69.309 58.030, 71.107 56.403 C 72.148 55.461, 73 54.129, 73 53.443 C 73 52.120, 57.259 37, 55.881 37 C 55.435 37, 54.613 37.855, 54.053 38.900 M 244.679 56.189 C 235.860 63.301, 235.858 63.303, 237.856 65.301 C 239.855 67.299, 239.857 67.298, 248.177 60.499 C 252.755 56.759, 256.908 53.335, 257.408 52.892 C 258.467 51.950, 256.325 48.981, 254.628 49.038 C 254.007 49.058, 249.530 52.276, 244.679 56.189 M 233.667 50.667 C 232.537 51.796, 232.929 54, 234.259 54 C 234.952 54, 236.081 53.100, 236.768 52 C 237.847 50.272, 237.767 50, 236.175 50 C 235.162 50, 234.033 50.300, 233.667 50.667 M 40.051 54.905 C 39.051 56.774, 39.848 57.633, 48.621 64.141 C 57.698 70.875, 58.378 71.203, 59.647 69.467 C 60.391 68.450, 61 67.346, 61 67.015 C 61 66.250, 44.869 54.271, 42.740 53.454 C 41.736 53.068, 40.748 53.601, 40.051 54.905 M 257.473 57.044 C 257.118 57.618, 257.572 59.223, 258.481 60.611 C 259.778 62.590, 259.878 63.443, 258.944 64.567 C 257.274 66.580, 255.257 66.349, 254 64 C 252.805 61.767, 252.174 61.604, 250.009 62.973 C 248.700 63.801, 248.723 64.261, 250.197 66.756 C 251.790 69.453, 251.779 69.657, 249.989 70.775 C 248.372 71.784, 247.795 71.521, 245.954 68.935 C 244.239 66.526, 243.522 66.152, 242.402 67.081 C 241.631 67.721, 241 68.634, 241 69.109 C 241 70.669, 246.473 77.923, 247.679 77.962 C 248.989 78.004, 267 66.316, 267 65.423 C 267 65.114, 265.628 62.867, 263.952 60.430 C 260.972 56.100, 258.768 54.948, 257.473 57.044 M 32.253 66.250 C 31.308 68.272, 32.026 69.337, 39.351 76.779 L 47.500 85.059 38.200 81.029 C 33.085 78.813, 28.360 77, 27.700 77.001 C 26.402 77.002, 21.919 87.016, 22.665 88.250 C 23.808 90.142, 26.870 88.813, 27.851 85.998 C 28.821 83.216, 29.086 83.082, 31.463 84.165 C 33.994 85.318, 34.071 85.911, 32.305 90.621 C 32.074 91.237, 32.687 92.049, 33.666 92.425 C 35.526 93.139, 38 90.789, 38 88.309 C 38 86.675, 39.007 86.689, 41.198 88.354 C 42.731 89.519, 42.753 89.923, 41.418 92.495 C 39.926 95.372, 40.669 96.943, 43.545 96.985 C 44.541 96.999, 48.500 88.629, 48.500 86.509 C 48.500 85.954, 49.366 84.634, 50.425 83.575 C 52.325 81.675, 52.274 81.581, 46.536 76.325 C 43.339 73.396, 40.898 71, 41.112 71.001 C 41.325 71.001, 43.867 71.901, 46.761 73.001 C 53.170 75.437, 55.587 75.520, 56.426 73.333 C 57.310 71.029, 56.771 70.711, 45.943 67.146 C 34.552 63.396, 33.617 63.335, 32.253 66.250 M 259.250 75.029 C 249.467 79.671, 248.057 80.968, 249.803 83.716 C 250.409 84.670, 251.108 84.666, 253.038 83.699 C 254.392 83.021, 256.850 81.878, 258.500 81.159 C 261.357 79.915, 261.297 80.060, 257.250 84.214 C 252.721 88.862, 252.200 90.524, 254.351 93.466 C 255.637 95.225, 256.203 95.082, 266.101 90.498 C 271.821 87.850, 276.654 85.563, 276.841 85.417 C 277.545 84.868, 275.825 81, 274.878 81 C 274.043 81, 266.815 84.025, 263.500 85.761 C 262.950 86.049, 264.637 84.068, 267.250 81.358 C 272.201 76.222, 272.843 74.467, 270.750 71.774 C 269.628 70.330, 268.449 70.664, 259.250 75.029 M 267.337 95.019 C 257.593 100.753, 257.203 101.114, 257.904 103.750 C 258.572 106.264, 259.101 106.528, 264.067 106.827 C 267.055 107.008, 272.735 106.859, 276.688 106.498 C 283.533 105.872, 283.839 105.737, 283.080 103.670 C 282.598 102.355, 281.262 101.377, 279.690 101.188 C 276.122 100.759, 275.060 97.222, 277.861 95.093 C 279.336 93.971, 279.780 92.834, 279.361 91.250 C 279.034 90.013, 278.482 89.008, 278.133 89.018 C 277.785 89.028, 272.926 91.728, 267.337 95.019 M 20.035 93.934 C 18.515 96.775, 18.594 96.869, 23.540 98.114 C 29.250 99.552, 28.889 101.624, 23.009 101.167 C 18.852 100.844, 17.054 101.868, 17.015 104.582 C 16.995 106.024, 25.426 107.901, 27.277 106.865 C 28.234 106.329, 29.349 106.728, 30.522 108.025 C 31.685 109.309, 33.595 110, 35.986 110 C 39.888 110, 40.697 109.088, 42.868 102.243 C 43.864 99.101, 43.774 98.933, 40.328 97.493 C 38.363 96.672, 36.248 95.989, 35.628 95.975 C 35.008 95.962, 31.843 95.062, 28.595 93.975 C 21.348 91.551, 21.311 91.551, 20.035 93.934 M 268.559 100.532 C 266.697 101.940, 266.728 102, 269.309 102 C 271.034 102, 272 101.462, 272 100.500 C 272 98.634, 271.057 98.642, 268.559 100.532 M 33 102.531 C 33 104.555, 35.823 105.577, 37.309 104.091 C 38.208 103.192, 38.134 102.696, 36.992 101.974 C 34.759 100.562, 33 100.808, 33 102.531 M 16.573 111.570 C 14.134 114.009, 13.512 118.039, 15.128 120.931 C 16.270 122.974, 17.457 123.564, 20.924 123.814 C 24.814 124.095, 25.700 123.723, 29.140 120.363 C 31.975 117.595, 33.292 116.892, 34.111 117.711 C 35.415 119.015, 34.471 121, 32.548 121 C 31.032 121, 29.708 123.718, 30.556 125.090 C 31.622 126.816, 35.884 126.003, 37.443 123.777 C 39.552 120.766, 39.416 115.686, 37.171 113.655 C 34.054 110.834, 29.521 111.562, 25.697 115.500 C 22.147 119.156, 19 120.084, 19 117.475 C 19 116.637, 20.125 115.523, 21.500 115 C 25.212 113.589, 24.905 110, 21.071 110 C 19.461 110, 17.436 110.706, 16.573 111.570 M 270 111.202 C 259.532 112.989, 259.824 112.862, 260.567 115.283 C 260.942 116.502, 261.373 117.643, 261.525 117.817 C 261.860 118.202, 275.603 116.268, 278.750 115.393 C 280.361 114.944, 281 115.192, 281 116.267 C 281 117.092, 280.100 118.002, 279 118.290 C 276.869 118.847, 276.231 122.407, 278.060 123.537 C 279.872 124.657, 284.992 121.879, 285.603 119.446 C 286.297 116.682, 285.416 113.558, 283.363 111.506 C 281.709 109.852, 278.355 109.775, 270 111.202 M 14 130.060 L 14 132.715 25.008 133.412 C 31.062 133.795, 36.462 133.832, 37.008 133.495 C 37.553 133.158, 38 132.041, 38 131.013 C 38 128.997, 34.877 128.402, 20.750 127.727 C 14.031 127.407, 14 127.417, 14 130.060 M 20.500 136.897 L 14.500 137.500 14.201 142.665 C 13.952 146.955, 14.281 148.184, 16.139 149.915 C 20.058 153.566, 34.822 152.070, 37.112 147.790 C 37.659 146.768, 37.970 143.810, 37.803 141.216 L 37.500 136.500 32 136.397 C 28.975 136.340, 23.800 136.565, 20.500 136.897 M 262.626 139.533 C 262.282 140.430, 262 143.330, 262 145.978 L 262 150.792 269.750 151.388 C 274.012 151.716, 279.300 152.100, 281.500 152.242 L 285.500 152.500 285.798 146.250 C 286.071 140.521, 285.925 140, 284.048 140 C 282.374 140, 282 140.639, 282 143.500 C 282 146.741, 281.773 147, 278.925 147 C 276.055 147, 275.871 146.783, 276.175 143.750 C 276.448 141.022, 276.139 140.449, 274.250 140.180 C 272.336 139.909, 272 140.319, 272 142.930 C 272 145.518, 271.617 146, 269.560 146 C 267.464 146, 267.077 145.473, 266.810 142.258 C 266.479 138.266, 263.785 136.511, 262.626 139.533 M 25.754 141.972 C 18.037 142.758, 16.673 143.556, 19.502 145.626 C 20.879 146.635, 22.742 146.897, 25.500 146.472 C 31.937 145.478, 33 144.976, 33 142.933 C 33 141.870, 32.888 141.064, 32.750 141.142 C 32.612 141.220, 29.464 141.593, 25.754 141.972 M 262.268 155.732 C 260.185 157.815, 258.385 165.806, 259.712 167.081 C 260.146 167.498, 262.975 168.325, 266 168.920 C 269.025 169.515, 273.725 170.454, 276.444 171.007 C 279.163 171.560, 281.746 171.654, 282.184 171.216 C 283.767 169.633, 284.327 161.099, 282.957 159.448 C 280.750 156.788, 276.658 155.174, 270.303 154.455 C 265.048 153.860, 263.968 154.032, 262.268 155.732 M 15.160 158.096 C 15.411 159.870, 16.221 160.583, 18.250 160.816 C 19.762 160.990, 21 161.741, 21 162.485 C 21 163.228, 21.273 164.548, 21.607 165.418 C 21.993 166.423, 21.672 167, 20.729 167 C 18.374 167, 17.131 169.238, 18.086 171.758 C 18.937 174.005, 19 173.988, 29.471 168.781 C 39.631 163.728, 40 163.429, 40 160.272 C 40 157.026, 39.962 157, 35.151 157 C 32.484 157, 26.818 156.706, 22.561 156.346 L 14.820 155.691 15.160 158.096 M 264.998 161.004 C 264.101 162.679, 264.343 163.032, 266.728 163.533 C 268.253 163.853, 271.387 164.539, 273.693 165.058 C 279.145 166.283, 279 166.310, 279 164.078 C 279 162.122, 276.171 160.826, 269.270 159.622 C 266.734 159.179, 265.815 159.476, 264.998 161.004 M 26 163 C 26 164.253, 27.061 164.253, 29 163 C 30.213 162.216, 30.069 162.028, 28.250 162.015 C 27.012 162.007, 26 162.450, 26 163 M 80 166.094 C 80 167.346, 80.803 168.397, 82 168.710 C 83.829 169.189, 84 170.074, 84 179.061 C 84 187.934, 84.228 189.154, 86.349 191.620 C 88.335 193.928, 89.678 194.421, 95.025 194.808 C 102.261 195.332, 107.012 193.463, 108.882 189.359 C 109.497 188.010, 110 182.877, 110 177.953 C 110 170.661, 110.278 169, 111.500 169 C 112.433 169, 113 168.056, 113 166.500 C 113 164.071, 112.800 164, 106 164 C 99.562 164, 99 164.168, 99 166.094 C 99 167.346, 99.803 168.397, 101 168.710 C 102.809 169.183, 103 170.074, 103 178.045 C 103 187.381, 101.897 190, 97.964 190 C 95.008 190, 94 186.838, 94 177.566 C 94 169.667, 94.156 169, 96 169 C 97.467 169, 98 168.333, 98 166.500 C 98 164.019, 97.933 164, 89 164 C 80.533 164, 80 164.124, 80 166.094 M 118 166.500 C 118 168.333, 118.533 169, 120 169 C 121.867 169, 122 169.667, 122 179 C 122 188.440, 121.884 189, 119.934 189 C 118.269 189, 117.929 189.535, 118.184 191.750 L 118.500 194.500 133.250 194.777 L 148 195.053 148 188.027 C 148 181.198, 147.929 181, 145.500 181 C 143.771 181, 143 181.548, 143 182.777 C 143 186.448, 140.106 189, 135.943 189 C 132.009 189, 132 188.990, 132 185 C 132 180.467, 133.566 179.729, 135.028 183.573 C 135.661 185.239, 136.621 186.027, 137.753 185.809 C 139.216 185.527, 139.500 184.341, 139.500 178.500 C 139.500 172.659, 139.216 171.473, 137.753 171.191 C 136.621 170.973, 135.661 171.761, 135.028 173.427 C 133.622 177.123, 132 176.595, 132 172.443 L 132 168.885 136.250 169.193 C 139.932 169.459, 140.700 169.931, 142 172.728 C 143.032 174.949, 144.202 175.963, 145.750 175.978 C 147.836 175.998, 148 175.562, 148 170 L 148 164 133 164 L 118 164 118 166.500 M 155 166.500 C 155 168.333, 155.533 169, 157 169 C 158.867 169, 159 169.667, 159 179 C 159 188.440, 158.884 189, 156.934 189 C 155.269 189, 154.929 189.535, 155.184 191.750 L 155.500 194.500 164 194.500 C 172.133 194.500, 172.514 194.400, 172.829 192.177 C 173.066 190.507, 172.574 189.701, 171.079 189.310 C 169.416 188.876, 169 187.976, 169 184.814 C 169 181.286, 169.242 180.895, 171.250 181.180 C 172.934 181.420, 173.569 182.254, 173.774 184.500 C 174.505 192.491, 176.368 195, 181.571 195 C 185.864 195, 189 192.045, 189 188 C 189 185.705, 188.547 185, 187.073 185 C 186.014 185, 184.941 185.787, 184.689 186.750 C 184.438 187.713, 184.180 187.008, 184.116 185.184 C 184.052 183.361, 183.514 180.961, 182.920 179.851 C 182.086 178.292, 182.199 177.437, 183.420 176.088 C 185.631 173.645, 185.413 168.413, 183 166 C 181.205 164.205, 179.667 164, 168 164 L 155 164 155 166.500 M 202 166.094 C 202 167.358, 202.806 168.398, 204.035 168.719 C 205.928 169.214, 206.050 169.915, 205.785 178.770 C 205.555 186.440, 205.170 188.496, 203.798 189.359 C 201.474 190.821, 200.208 189.300, 202.409 187.690 C 203.577 186.836, 204.058 185.406, 203.836 183.451 C 203.553 180.965, 203.007 180.452, 200.375 180.196 C 196.359 179.805, 194 182.149, 194 186.531 C 194 191.637, 198.086 195, 204.289 195 C 209.534 195, 214.400 193.006, 215.379 190.455 C 215.720 189.565, 216 184.426, 216 179.035 C 216 170.074, 216.172 169.188, 218 168.710 C 219.197 168.397, 220 167.346, 220 166.094 C 220 164.124, 219.467 164, 211 164 C 202.533 164, 202 164.124, 202 166.094 M 30.185 173.282 C 20.282 177.185, 19.896 177.450, 20.505 179.923 C 20.854 181.341, 21.928 183.850, 22.893 185.500 C 24.471 188.201, 25.139 188.497, 29.587 188.470 C 32.778 188.451, 36.292 187.566, 39.514 185.970 C 43.989 183.753, 44.531 183.126, 44.805 179.848 C 45.114 176.133, 42.758 168.911, 41.301 169.108 C 40.860 169.168, 35.858 171.046, 30.185 173.282 M 169 172.500 C 169 175.257, 169.398 176, 170.878 176 C 173.467 176, 175.297 173.510, 174.515 171.048 C 174.095 169.723, 173.006 169, 171.433 169 C 169.319 169, 169 169.459, 169 172.500 M 32 178.486 C 25.945 181.032, 24.586 183.639, 29.500 183.283 C 34.233 182.940, 40 179.955, 40 177.848 C 40 175.521, 38.834 175.614, 32 178.486 M 251.073 185.635 C 246.971 190.849, 248.739 194.830, 257.009 199.005 C 263.430 202.246, 269.039 202.863, 270.967 200.539 C 271.634 199.736, 272.415 197.323, 272.703 195.176 C 273.178 191.639, 272.912 191.041, 269.863 188.780 C 261.250 182.391, 254.512 181.263, 251.073 185.635 M 37.250 190.311 C 32.163 193.115, 28 196.024, 28 196.776 C 28 198.421, 32.916 207.006, 33.845 206.985 C 34.205 206.976, 35.105 206.586, 35.844 206.117 C 36.953 205.415, 36.902 204.712, 35.553 202.103 C 33.723 198.564, 34.019 197.490, 37.042 196.699 C 38.568 196.300, 39.410 196.806, 40.236 198.618 C 42.451 203.480, 45.700 199.845, 43.578 194.879 C 42.307 191.904, 46.233 191.554, 48.532 194.438 C 50.675 197.125, 52.459 197.685, 53.502 195.997 C 54.305 194.698, 49.023 184.967, 47.591 185.107 C 46.991 185.165, 42.337 187.507, 37.250 190.311 M 254.177 189.669 C 254.634 192.030, 265.108 197.556, 267.433 196.664 C 269.180 195.994, 269.186 195.863, 267.540 194.044 C 265.572 191.870, 257.824 188, 255.438 188 C 254.495 188, 253.984 188.677, 254.177 189.669 M 244.030 197.945 C 243.017 199.836, 243.782 200.566, 253.090 206.607 C 260.960 211.714, 263.449 212.899, 264.113 211.852 C 265.956 208.943, 264.646 207.301, 256.251 202 C 245.855 195.435, 245.445 195.299, 244.030 197.945 M 237.104 207.535 C 235.397 209.479, 234 211.453, 234 211.922 C 234 212.391, 237.240 215.413, 241.201 218.637 C 252.215 227.605, 251.783 227.359, 253.509 225.634 C 255.628 223.515, 255.394 222.667, 252 220.158 C 250.350 218.938, 249 217.504, 249 216.970 C 249 215.308, 251.950 215.903, 255.042 218.189 C 257.959 220.346, 258.025 220.349, 259.484 218.439 C 260.842 216.660, 260.701 216.273, 257.770 213.750 C 256.013 212.238, 253.546 211, 252.288 211 C 250.921 211, 250 210.396, 250 209.500 C 250 207.031, 246.200 204, 243.104 204 C 241.040 204, 239.315 205.016, 237.104 207.535 M 58.618 209.481 C 53.230 214.115, 45 222.111, 45 222.712 C 45 223.042, 46.107 224.763, 47.461 226.537 C 52.016 232.510, 56.840 231.994, 64.428 224.724 C 70.134 219.256, 70.495 215.772, 65.896 210.535 C 64.189 208.591, 62.502 207.001, 62.146 207.001 C 61.791 207.002, 60.203 208.118, 58.618 209.481 M 241 210.465 C 241 212.394, 244.636 214.398, 245.525 212.959 C 246.333 211.652, 244.225 209, 242.378 209 C 241.620 209, 241 209.659, 241 210.465 M 56.247 218.977 C 51.083 223.794, 50.758 225.779, 55.322 224.634 C 58.540 223.826, 64.392 217.465, 63.664 215.566 C 62.775 213.249, 62.010 213.600, 56.247 218.977 M 71.353 222.285 C 70.172 222.953, 67.359 225.742, 65.103 228.482 C 60.268 234.352, 59.719 238.448, 63.314 241.826 C 66.911 245.205, 70.964 244.665, 75.148 240.250 C 82.842 232.131, 84.143 226.831, 79.365 223.073 C 76.380 220.724, 74.448 220.535, 71.353 222.285 M 218.285 225.484 C 212.523 227.975, 212.723 233.186, 218.888 241.190 C 223.764 247.521, 226.901 248.823, 231.221 246.311 C 235.855 243.615, 236.120 239.420, 232.056 233.088 C 226.819 224.927, 223.638 223.170, 218.285 225.484 M 74.226 226.716 C 72.483 227.354, 66 235.966, 66 237.644 C 66 241.362, 72.765 236.409, 76.125 230.230 C 77.449 227.796, 76.429 225.910, 74.226 226.716 M 219.489 230.018 C 218.226 232.061, 227.087 243.682, 229.004 242.497 C 230.816 241.377, 230.046 239.238, 225.977 234.090 C 221.920 228.957, 220.641 228.155, 219.489 230.018 M 201.500 236.170 C 199.300 237.314, 197.339 238.393, 197.141 238.568 C 196.700 238.957, 207.925 260, 208.574 260 C 209.549 260, 216.866 255.026, 217.572 253.883 C 219.708 250.427, 217.462 243.080, 212.447 237.120 C 209.385 233.480, 207.058 233.278, 201.500 236.170 M 95.079 239.250 C 94.304 241.037, 92.169 245.612, 90.335 249.415 C 88.501 253.219, 87 256.626, 87 256.987 C 87 257.742, 96.100 262, 97.713 262 C 98.582 262, 100 259.854, 100 258.540 C 100 258.376, 98.650 257.683, 97 257 C 93.873 255.705, 93.601 255.203, 94.607 252.582 C 95.310 250.750, 98.095 250.495, 99.713 252.113 C 100.325 252.725, 101.315 252.923, 101.913 252.554 C 103.864 251.348, 103.057 248.347, 100.462 247.165 C 98.331 246.194, 98.094 245.693, 98.982 244.034 C 99.875 242.366, 100.412 242.231, 102.455 243.162 C 105.220 244.421, 108 243.698, 108 241.719 C 108 240.567, 99.403 236, 97.235 236 C 96.824 236, 95.854 237.463, 95.079 239.250 M 204.566 239.893 C 203.775 241.174, 210.255 252.993, 211.750 252.997 C 213.786 253.002, 213.185 249.110, 210.341 243.885 C 207.830 239.272, 205.812 237.877, 204.566 239.893 M 110.500 243.203 C 107.705 244.777, 107.033 246.024, 107.015 249.673 C 107.006 251.616, 107.969 253.998, 109.500 255.818 C 112.589 259.488, 112.744 262, 109.883 262 C 108.283 262, 107.890 261.528, 108.273 260.065 C 108.775 258.146, 107.333 257, 104.418 257 C 103.473 257, 103 258.130, 103 260.385 C 103 262.879, 103.649 264.195, 105.465 265.385 C 114.056 271.014, 121.509 261.147, 114.742 253.105 C 113.280 251.367, 112.338 249.283, 112.649 248.473 C 113.461 246.357, 115 246.658, 115 248.933 C 115 250.936, 118.224 252.598, 119.991 251.506 C 120.546 251.163, 121 249.794, 121 248.464 C 121 244.563, 114.166 241.139, 110.500 243.203 M 174 246.306 C 171.720 247.469, 171.501 248.151, 171.514 254.041 C 171.540 265.611, 176.818 272.113, 183.560 268.882 C 187.923 266.791, 188.760 263.144, 186.704 255.186 C 184.277 245.792, 180.365 243.057, 174 246.306 M 122 248.094 C 122 249.346, 122.803 250.397, 124 250.710 C 126.366 251.329, 126.325 250.453, 124.472 260.935 C 123.279 267.679, 123.233 269.533, 124.240 270.184 C 126.063 271.361, 128.447 270.717, 128.662 268.989 C 128.763 268.170, 129.425 263.987, 130.132 259.694 C 131.329 252.427, 131.569 251.926, 133.605 252.437 C 135.609 252.940, 137 251.569, 137 249.090 C 137 248.219, 127.967 246, 124.424 246 C 122.631 246, 122 246.545, 122 248.094 M 139.211 250.697 C 137.723 254.574, 133 270.135, 133 271.161 C 133 271.623, 134.116 272, 135.481 272 C 137.293 272, 138.131 271.326, 138.589 269.500 C 139.073 267.571, 139.862 267, 142.042 267 C 144.381 267, 144.922 267.474, 145.184 269.750 C 145.432 271.907, 146.091 272.568, 148.238 272.815 C 151.270 273.164, 151.242 273.583, 148.991 261.500 C 146.493 248.096, 146.674 248.523, 143.361 248.197 C 140.786 247.944, 140.112 248.350, 139.211 250.697 M 153.354 249.236 C 152.934 249.915, 152.736 252.053, 152.914 253.986 C 153.092 255.919, 153.522 260.875, 153.869 265 L 154.500 272.500 159 272.187 C 165.448 271.738, 166.557 271.267, 167.848 268.434 C 170.246 263.172, 168.315 251.091, 164.711 248.800 C 162.747 247.552, 154.192 247.880, 153.354 249.236 M 176.690 249.643 C 174.904 251.430, 178.238 265, 180.464 265 C 182.634 265, 182.949 262.493, 181.480 256.923 C 180.076 251.603, 177.955 248.378, 176.690 249.643 M 158.755 259.250 C 159.280 267.844, 159.496 268.340, 162.101 266.946 C 163.988 265.936, 164.157 265.243, 163.580 260.891 C 162.713 254.358, 162.111 253, 160.079 253 C 158.611 253, 158.426 253.875, 158.755 259.250 M 141.574 259.297 C 141.126 260.835, 141.039 262.372, 141.380 262.713 C 142.499 263.833, 143.158 262.235, 142.770 259.341 L 142.389 256.500 141.574 259.297" stroke="none" fill="#0b80c3" fill-rule="evenodd"/><path d="M 136.826 3.238 C 134.740 6.163, 134.500 7.602, 134.500 17.169 C 134.500 27.167, 134.343 28.006, 132 30.520 C 130.625 31.995, 126.350 34.781, 122.500 36.710 C 118.650 38.640, 114.033 41.320, 112.241 42.667 C 108.715 45.316, 105 51.649, 105 55.011 C 105 57.062, 105.062 57.055, 108.250 54.669 C 113.643 50.632, 117.061 49.337, 127 47.562 C 138.761 45.463, 144.411 42.863, 147.499 38.129 C 152.316 30.743, 151.514 23.928, 144.451 12.214 C 142.556 9.071, 141.004 5.289, 141.003 3.809 C 140.999 -0.208, 139.437 -0.421, 136.826 3.238 M 111.742 8.250 C 118.688 15.450, 118.128 20.246, 109.654 26.144 C 100.528 32.496, 96.224 41.788, 98.397 50.446 C 99.332 54.172, 100.389 53.589, 101.885 48.523 C 103.613 42.672, 109.751 35.800, 115.730 33.024 C 126.016 28.248, 128.882 22.519, 124.998 14.496 C 122.334 8.992, 116.900 5, 112.072 5 L 108.608 5 111.742 8.250 M 162.247 10.250 C 158.927 14.412, 158.004 18.301, 157.757 29.187 C 157.525 39.407, 157.264 40.814, 155.060 43.753 C 151.689 48.246, 146.135 50.670, 133.929 52.973 C 109.497 57.584, 95.014 64.270, 90.484 73.030 C 86.767 80.219, 89.954 88.559, 98 92.694 C 106.309 96.963, 128.107 99.618, 133.066 96.965 C 136.349 95.208, 135.452 91.475, 130.866 87.806 C 124.228 82.497, 122 80.189, 122 78.622 C 122 74.712, 129.439 69.375, 138.898 66.500 C 141 65.861, 140.846 66.221, 137.648 69.419 C 135.641 71.425, 134 73.465, 134 73.952 C 134 76.423, 135.777 78.453, 141.114 82.077 C 147.191 86.204, 148.140 87.914, 147.734 94 L 147.500 97.500 154.401 97.799 C 164.278 98.227, 164.665 97.888, 160.513 92.450 C 155.059 85.304, 155.694 78.715, 162.412 72.766 C 166.507 69.140, 167.191 69.298, 165.449 73.468 C 162.165 81.328, 164.619 89.747, 171.418 93.950 C 176.382 97.018, 178.064 96.711, 176.981 92.935 C 175.659 88.324, 177.535 85.365, 183.601 82.496 C 186.502 81.123, 189.692 79.996, 190.688 79.990 C 193.600 79.975, 202.264 75.526, 205.237 72.520 C 209.283 68.430, 211.042 60.496, 209.325 54.079 C 208.738 51.887, 208.460 52.150, 206.378 56.868 C 204.442 61.254, 203.359 62.396, 199.523 64.093 C 196.559 65.404, 193.375 66.002, 190.412 65.804 L 185.857 65.500 190.966 61.614 C 200.086 54.677, 203.202 46.123, 199.075 39.355 C 198.020 37.624, 193.563 33.474, 189.171 30.130 C 184.779 26.787, 180.244 22.854, 179.093 21.391 C 177.099 18.857, 177 18.833, 177 20.895 C 177 22.086, 178.151 25.795, 179.558 29.139 C 180.965 32.482, 181.885 35.448, 181.602 35.732 C 180.669 36.665, 169.294 24.496, 167.125 20.245 C 165.956 17.954, 165 14.487, 165 12.540 C 165 8.895, 163.995 8.060, 162.247 10.250 M 118.495 102.287 C 118.089 103.270, 116.237 104.710, 114.379 105.486 C 112.520 106.263, 111 107.377, 111 107.962 C 111 108.547, 108.563 110.103, 105.585 111.420 C 100.619 113.616, 98 116.211, 98 118.934 C 98 120.732, 100.446 120.117, 101.777 117.985 C 102.470 116.876, 104.759 115.280, 106.865 114.437 C 108.971 113.595, 111.676 111.577, 112.877 109.953 C 114.078 108.329, 115.706 107, 116.495 107 C 118.179 107, 120.329 103.420, 119.681 101.695 C 119.399 100.944, 118.959 101.164, 118.495 102.287 M 145 101.958 C 145 102.485, 141.512 103.047, 137.250 103.208 C 126.915 103.597, 127.680 105.364, 138.458 106 C 144.769 106.372, 146.744 106.811, 146.181 107.715 C 145.678 108.524, 141.619 109.026, 134.044 109.215 C 126.038 109.416, 122.540 109.871, 122.248 110.750 C 121.922 111.734, 129.110 112, 155.990 112 C 187.978 112, 190.126 111.889, 189.820 110.250 C 189.641 109.287, 188.145 107.825, 186.497 106.999 C 184.849 106.174, 183.455 104.937, 183.400 104.249 C 183.345 103.562, 183.233 102.550, 183.150 102 C 182.951 100.675, 145 100.633, 145 101.958 M 277.750 106.662 C 278.438 106.940, 279.563 106.940, 280.250 106.662 C 280.938 106.385, 280.375 106.158, 279 106.158 C 277.625 106.158, 277.063 106.385, 277.750 106.662 M 147 114.777 C 147 115.755, 147.701 117.555, 148.557 118.777 C 150.098 120.977, 150.379 121, 176.130 121 C 200.364 121, 202.124 120.880, 201.823 119.250 C 201.645 118.287, 199.492 116.487, 197.038 115.250 C 192.800 113.113, 191.432 113, 169.788 113 C 148.618 113, 147 113.126, 147 114.777 M 99 122.797 C 99 123.235, 100.758 125.311, 102.907 127.409 C 105.056 129.507, 107.603 133.311, 108.568 135.862 C 109.533 138.413, 111.007 141.559, 111.844 142.852 C 113.570 145.523, 120.210 150, 122.445 150 C 123.262 150, 124.411 150.900, 125 152 C 126.024 153.914, 127.094 154, 149.913 154 C 169.968 154, 173.954 153.760, 175.010 152.488 C 175.700 151.657, 178.117 150.157, 180.382 149.155 C 185.661 146.820, 190.607 141.173, 192.043 135.842 C 192.773 133.129, 194.723 130.147, 197.585 127.366 C 200.013 125.006, 202 122.833, 202 122.537 C 202 122.242, 178.825 122, 150.500 122 C 122.175 122, 99 122.359, 99 122.797 M 109 124.572 C 109 126.457, 113.499 136.649, 115.636 139.604 C 116.870 141.312, 120.339 143.873, 123.345 145.297 C 126.351 146.720, 129.105 148.360, 129.464 148.942 C 130.496 150.611, 133.632 150.230, 146.869 146.823 C 160.946 143.200, 165.340 140.821, 165.832 136.555 C 166.289 132.591, 164.475 129.635, 160.060 127.154 C 156.671 125.249, 154.111 124.989, 132.661 124.368 C 119.012 123.973, 109 124.060, 109 124.572 M 13.374 138.467 C 13.065 139.274, 13.004 140.511, 13.240 141.217 C 13.476 141.923, 13.906 141.262, 14.196 139.750 C 14.762 136.797, 14.295 136.068, 13.374 138.467 M 21.750 146.662 C 22.438 146.940, 23.563 146.940, 24.250 146.662 C 24.938 146.385, 24.375 146.158, 23 146.158 C 21.625 146.158, 21.063 146.385, 21.750 146.662 M 127.637 155.779 C 127.359 156.228, 127.472 157.146, 127.887 157.818 C 128.454 158.734, 134.128 158.972, 150.571 158.770 C 169.277 158.540, 172.500 158.280, 172.500 157 C 172.500 155.720, 169.249 155.461, 150.321 155.231 C 138.122 155.083, 127.914 155.330, 127.637 155.779 M 26.269 156.693 C 27.242 156.947, 28.592 156.930, 29.269 156.656 C 29.946 156.382, 29.150 156.175, 27.500 156.195 C 25.850 156.215, 25.296 156.439, 26.269 156.693 M 85.280 163.736 C 87.909 163.943, 91.959 163.940, 94.280 163.731 C 96.601 163.521, 94.450 163.352, 89.500 163.355 C 84.550 163.358, 82.651 163.530, 85.280 163.736 M 102.728 163.722 C 104.503 163.943, 107.653 163.946, 109.728 163.730 C 111.802 163.513, 110.350 163.333, 106.500 163.328 C 102.650 163.324, 100.952 163.501, 102.728 163.722 M 125.250 163.743 C 129.512 163.931, 136.488 163.931, 140.750 163.743 C 145.012 163.556, 141.525 163.402, 133 163.402 C 124.475 163.402, 120.987 163.556, 125.250 163.743 M 160.784 163.738 C 163.689 163.941, 168.189 163.939, 170.784 163.734 C 173.378 163.528, 171 163.363, 165.500 163.365 C 160 163.368, 157.878 163.536, 160.784 163.738 M 206.750 163.732 C 209.088 163.943, 212.912 163.943, 215.250 163.732 C 217.588 163.522, 215.675 163.349, 211 163.349 C 206.325 163.349, 204.412 163.522, 206.750 163.732 M 136.358 207.750 C 137.410 220.216, 139.798 238.865, 140.485 239.976 C 141.544 241.690, 142.837 241.126, 143.294 238.750 L 143.728 236.500 143.864 238.750 C 143.939 239.988, 144.563 241.042, 145.250 241.094 C 146.374 241.179, 152.576 241.101, 157.298 240.943 C 159.883 240.857, 160.791 237.910, 162.054 225.500 C 164.497 201.513, 164.505 200, 162.193 200 C 159.850 200, 159.721 200.641, 158.142 220 L 157.204 231.500 157.353 215.750 L 157.501 200 154.250 200 L 151 200 150.885 217.250 C 150.806 229.171, 150.514 233.264, 149.943 230.500 C 149.488 228.300, 149.089 220.537, 149.058 213.250 L 149 200 145.750 199.999 L 142.500 199.997 142.644 213.749 C 142.755 224.342, 142.608 226.122, 142.003 221.500 C 141.571 218.200, 141.168 212.724, 141.109 209.332 C 140.975 201.721, 140.354 200, 137.745 200 C 135.809 200, 135.737 200.401, 136.358 207.750 M 145.436 288.250 C 146.486 299.219, 146.789 300, 150.001 300 C 153.403 300, 153.778 299.105, 154.623 288.973 L 155.288 281 150.015 281 L 144.742 281 145.436 288.250" stroke="none" fill="#de741d" fill-rule="evenodd"/></svg>