<?xml version="1.0" standalone="no"?>
<!DOCTYPE svg PUBLIC "-//W3C//DTD SVG 20010904//EN"
 "http://www.w3.org/TR/2001/REC-SVG-20010904/DTD/svg10.dtd">
<svg version="1.0" xmlns="http://www.w3.org/2000/svg"
 width="512.000000pt" height="512.000000pt" viewBox="0 0 512.000000 512.000000"
 preserveAspectRatio="xMidYMid meet">
<metadata>
Created by potrace 1.14, written by Peter Selinger 2001-2017
</metadata>
<g transform="translate(0.000000,512.000000) scale(0.100000,-0.100000)"
fill="#000000" stroke="none">
<path d="M3140 4542 c-63 -22 -141 -103 -163 -171 -14 -45 -17 -97 -17 -332
l0 -279 -1318 0 c-1134 0 -1325 -2 -1368 -15 -56 -16 -126 -71 -151 -119 -44
-81 -43 -48 -40 -1201 2 -1225 -3 -1130 71 -1213 35 -39 102 -78 149 -86 12
-3 268 -5 568 -5 l547 -1 -20 -79 -20 -79 -110 -4 c-151 -4 -149 -2 -146 -205
3 -131 6 -155 21 -170 17 -17 63 -18 760 -21 408 -1 752 0 764 3 42 10 53 52
53 195 0 143 -11 183 -52 194 -13 3 -64 6 -114 6 l-92 0 -20 80 -20 80 269 0
269 0 1 -152 c1 -221 8 -250 84 -324 92 -89 40 -85 975 -82 925 3 851 -4 941
90 86 89 79 -77 78 1912 0 1532 -2 1767 -15 1810 -11 34 -31 64 -68 102 -89
89 -39 84 -966 83 -694 -2 -811 -4 -850 -17z"/>
</g>
</svg>
